<svg width="40" height="39" viewBox="0 0 40 39" fill="none" xmlns="http://www.w3.org/2000/svg">
<path d="M35 19.5C35 17.5794 34.612 15.6776 33.8582 13.9033C33.1044 12.1289 31.9995 10.5166 30.6066 9.15856C29.2137 7.80051 27.5601 6.72324 25.7403 5.98826C23.9204 5.25329 21.9698 4.875 20 4.875C18.0302 4.875 16.0796 5.25329 14.2597 5.98826C12.4399 6.72324 10.7863 7.80051 9.3934 9.15856C8.00052 10.5166 6.89563 12.1289 6.14181 13.9033C5.38799 15.6776 5 17.5794 5 19.5C5 21.4206 5.38799 23.3224 6.14181 25.0967C6.89563 26.8711 8.00052 28.4834 9.3934 29.8414C10.7863 31.1995 12.4399 32.2768 14.2597 33.0117C16.0796 33.7467 18.0302 34.125 20 34.125C21.9698 34.125 23.9204 33.7467 25.7403 33.0117C27.5601 32.2768 29.2137 31.1995 30.6066 29.8414C31.9995 28.4834 33.1044 26.8711 33.8582 25.0967C34.612 23.3224 35 21.4206 35 19.5ZM0 19.5C0 14.3283 2.10714 9.36838 5.85786 5.71142C9.60859 2.05446 14.6957 0 20 0C25.3043 0 30.3914 2.05446 34.1421 5.71142C37.8929 9.36838 40 14.3283 40 19.5C40 24.6717 37.8929 29.6316 34.1421 33.2886C30.3914 36.9455 25.3043 39 20 39C14.6957 39 9.60859 36.9455 5.85786 33.2886C2.10714 29.6316 0 24.6717 0 19.5ZM20 25.5938C21.6576 25.5938 23.2473 24.9517 24.4194 23.8089C25.5915 22.6661 26.25 21.1162 26.25 19.5C26.25 17.8838 25.5915 16.3339 24.4194 15.1911C23.2473 14.0483 21.6576 13.4062 20 13.4062C18.3424 13.4062 16.7527 14.0483 15.5806 15.1911C14.4085 16.3339 13.75 17.8838 13.75 19.5C13.75 21.1162 14.4085 22.6661 15.5806 23.8089C16.7527 24.9517 18.3424 25.5938 20 25.5938ZM20 8.53125C22.9837 8.53125 25.8452 9.68688 27.955 11.7439C30.0647 13.801 31.25 16.5909 31.25 19.5C31.25 22.4091 30.0647 25.199 27.955 27.2561C25.8452 29.3131 22.9837 30.4688 20 30.4688C17.0163 30.4688 14.1548 29.3131 12.045 27.2561C9.93526 25.199 8.75 22.4091 8.75 19.5C8.75 16.5909 9.93526 13.801 12.045 11.7439C14.1548 9.68688 17.0163 8.53125 20 8.53125ZM17.5 19.5C17.5 18.8535 17.7634 18.2335 18.2322 17.7764C18.7011 17.3193 19.337 17.0625 20 17.0625C20.663 17.0625 21.2989 17.3193 21.7678 17.7764C22.2366 18.2335 22.5 18.8535 22.5 19.5C22.5 20.1465 22.2366 20.7665 21.7678 21.2236C21.2989 21.6807 20.663 21.9375 20 21.9375C19.337 21.9375 18.7011 21.6807 18.2322 21.2236C17.7634 20.7665 17.5 20.1465 17.5 19.5Z" fill="#297BBF"/>
</svg>
