<svg width="550" height="380" viewBox="0 0 550 380" fill="none" xmlns="http://www.w3.org/2000/svg">
<path d="M34.7399 60.0808C64.8029 49.1615 107.953 37.2632 150 33.2371C195.318 28.8875 233.855 34.0757 256.386 53.5085L259.581 332.008C227.518 317.229 187.077 315.606 149.835 319.177C109.629 323.068 69.1536 333.278 37.9926 343.638L34.7399 60.0808ZM290.493 53.1173C312.573 33.1727 350.98 27.1019 396.386 30.4107C438.514 33.4713 481.926 44.3766 512.231 54.6034L515.484 338.161C484.06 328.519 443.395 319.211 403.11 316.301C365.761 313.557 325.403 316.077 293.687 331.617L290.493 53.1173ZM273.143 27.4804C239.27 3.66204 190.525 0.620185 146.229 4.84365C94.642 9.80809 42.6974 25.2367 10.3699 37.9825C7.40368 39.152 4.89827 41.0105 3.15273 43.3363C1.4072 45.6621 0.49528 48.357 0.525829 51.0991L4.1316 365.433C4.15981 367.824 4.90351 370.168 6.29457 372.25C7.68563 374.333 9.67958 376.088 12.0938 377.354C14.508 378.62 17.2653 379.357 20.1131 379.498C22.9609 379.638 25.8081 379.178 28.3941 378.158C58.3449 366.383 106.653 352.082 153.572 347.571C201.581 342.962 241.936 349.044 263.785 371.371C265.402 373.022 267.442 374.345 269.755 375.244C272.068 376.143 274.594 376.595 277.147 376.565C279.701 376.536 282.216 376.027 284.508 375.075C286.8 374.123 288.809 372.753 290.388 371.066C311.718 348.244 351.923 341.238 399.992 344.745C447.036 348.177 495.693 361.366 525.872 372.452C528.481 373.412 531.338 373.807 534.182 373.601C537.025 373.395 539.765 372.595 542.15 371.274C544.534 369.952 546.487 368.152 547.83 366.038C549.173 363.924 549.863 361.564 549.836 359.173L546.23 44.8393C546.198 42.0971 545.225 39.4239 543.426 37.1388C541.628 34.8536 539.08 33.053 536.088 31.9519C503.477 19.9511 451.192 5.71805 399.504 1.93829C355.123 -1.29652 306.46 2.8913 273.143 27.4804Z" fill="#005689" fill-opacity="0.1"/>
</svg>
