<svg width="64" height="67" viewBox="0 0 64 67" fill="none" xmlns="http://www.w3.org/2000/svg">
<g filter="url(#filter0_d_334_515)">
<path d="M25.0015 11.0625C26.394 11.0625 27.7295 10.4797 28.7141 9.44243C29.6988 8.40512 30.2519 6.99823 30.2519 5.53125C30.2519 4.06427 29.6988 2.65738 28.7141 1.62007C27.7295 0.582755 26.394 0 25.0015 0C23.6091 0 22.2736 0.582755 21.289 1.62007C20.3043 2.65738 19.7512 4.06427 19.7512 5.53125C19.7512 6.99823 20.3043 8.40512 21.289 9.44243C22.2736 10.4797 23.6091 11.0625 25.0015 11.0625ZM17.1807 28.4859C18.537 27.9443 19.2261 26.3541 18.712 24.9252C18.1979 23.4963 16.6884 22.7703 15.3321 23.3119C8.71441 25.9393 4 32.6689 4 40.5625C4 50.7492 11.8318 59 21.5013 59C28.1955 59 34.0038 55.0475 36.9462 49.2396C37.6243 47.8914 37.1431 46.2205 35.8633 45.4945C34.5835 44.7686 32.9974 45.2871 32.3083 46.6354C30.2519 50.7031 26.1829 53.4688 21.5013 53.4688C14.7305 53.4688 9.25039 47.6955 9.25039 40.5625C9.25039 35.0428 12.5428 30.3297 17.1807 28.4859ZM32.4177 20.2707C32.4177 20.2719 32.416 20.272 32.4158 20.2709L32.2099 19.1635C31.7177 16.5938 29.5847 14.75 27.0908 14.75C23.7983 14.75 21.3263 17.9189 21.9716 21.3184L24.4984 34.6279C25.1547 38.0734 28.0205 40.551 31.3676 40.551H31.9255C31.9692 40.551 32.013 40.551 32.0677 40.551H42.3606C43.0935 40.551 43.7389 41.0234 44.0014 41.7494L47.972 52.9156C48.6283 54.7709 50.5753 55.7504 52.3582 55.1166L57.6086 53.2729C59.4463 52.6275 60.4307 50.5418 59.8182 48.6059C59.2056 46.6699 57.2258 45.6328 55.3881 46.2781C54.2565 46.6734 53.0181 46.0807 52.6161 44.9514L50.5534 39.1566C49.2736 35.5613 46.0031 33.176 42.3606 33.176H37.1579C35.8294 33.176 34.6886 32.2314 34.4408 30.9262C34.1173 29.2224 35.4237 27.6447 37.1579 27.6447H40.7527C42.6888 27.6447 44.253 25.9969 44.253 23.9572C44.253 21.9176 42.6888 20.2697 40.7527 20.2697H32.4187C32.4181 20.2697 32.4177 20.2702 32.4177 20.2707Z" fill="#005689"/>
</g>
<defs>
<filter id="filter0_d_334_515" x="0" y="0" width="64" height="67" filterUnits="userSpaceOnUse" color-interpolation-filters="sRGB">
<feFlood flood-opacity="0" result="BackgroundImageFix"/>
<feColorMatrix in="SourceAlpha" type="matrix" values="0 0 0 0 0 0 0 0 0 0 0 0 0 0 0 0 0 0 127 0" result="hardAlpha"/>
<feOffset dy="4"/>
<feGaussianBlur stdDeviation="2"/>
<feComposite in2="hardAlpha" operator="out"/>
<feColorMatrix type="matrix" values="0 0 0 0 0 0 0 0 0 0 0 0 0 0 0 0 0 0 0.25 0"/>
<feBlend mode="normal" in2="BackgroundImageFix" result="effect1_dropShadow_334_515"/>
<feBlend mode="normal" in="SourceGraphic" in2="effect1_dropShadow_334_515" result="shape"/>
</filter>
</defs>
</svg>
