<svg width="25" height="23" viewBox="0 0 25 23" fill="none" xmlns="http://www.w3.org/2000/svg">
<path d="M5.17394 5.97386H14.0957V4.56517H5.17394V5.97386ZM5.17394 8.79125H14.0957V7.38256H5.17394V8.79125ZM5.17394 11.6086H14.0957V10.1999H5.17394V11.6086ZM18.5566 3.15647V13.0173C18.5566 14.5725 17.2242 15.8347 15.5826 15.8347H8.45566C8.25789 15.8347 8.06905 15.908 7.93076 16.0404L4.95685 18.8578C4.80518 19.0015 4.61931 19.0663 4.43641 19.0663C4.05278 19.0663 3.68699 18.7831 3.68699 18.3605V15.8347C2.04539 15.8347 0.713074 14.5725 0.713074 13.0173V3.15647C0.713074 1.59986 2.04539 0.339081 3.68699 0.339081H15.5826C17.2242 0.339081 18.5566 1.59986 18.5566 3.15647ZM21.5305 4.5646C23.1721 4.5646 24.5044 5.8268 24.5044 7.382V17.2429C24.5044 18.6882 23.355 19.8799 21.874 20.0405C21.6821 20.0631 21.5305 20.2025 21.5305 20.3843V21.8845C21.5305 22.7734 20.39 23.2129 19.7342 22.5776L17.3536 20.2716C17.2138 20.1377 17.022 20.0603 16.8213 20.0603H9.63481C8.59097 20.0603 7.67649 19.5489 7.14416 18.7769L8.76346 17.2429H15.5826C18.0465 17.2429 20.0435 15.351 20.0435 13.0168V4.5646H21.5305Z" fill="#005689"/>
</svg>
