<svg width="42" height="24" viewBox="0 0 42 24" fill="none" xmlns="http://www.w3.org/2000/svg">
<path d="M20.9982 2.52194C16.244 2.52194 12.3357 4.07713 9.3388 6.07892C6.53151 7.95987 4.59193 10.1928 3.60026 11.769C4.59193 13.3453 6.53151 15.5782 9.33151 17.4592C12.3357 19.461 16.244 21.0162 20.9982 21.0162C25.7523 21.0162 29.6607 19.461 32.6576 17.4592C35.4648 15.5782 37.4044 13.3453 38.3961 11.769C37.4044 10.1928 35.4648 7.95987 32.6648 6.07892C29.6607 4.07713 25.7523 2.52194 20.9982 2.52194ZM6.95443 4.23476C10.3888 1.93349 15.1065 0 20.9982 0C26.8898 0 31.6076 1.93349 35.0419 4.23476C38.4544 6.52026 40.7367 9.24711 41.8232 11.1228C42.0638 11.5379 42.0638 12.0002 41.8232 12.4153C40.7367 14.291 38.4544 17.0231 35.0419 19.3033C31.6076 21.6046 26.8898 23.5381 20.9982 23.5381C15.1065 23.5381 10.3888 21.6046 6.95443 19.3033C3.54193 17.0231 1.25964 14.291 0.180469 12.4153C-0.0601563 12.0002 -0.0601563 11.5379 0.180469 11.1228C1.25964 9.24711 3.54193 6.51501 6.95443 4.23476ZM20.9982 15.9723C24.2211 15.9723 26.8315 14.0913 26.8315 11.769C26.8315 9.44676 24.2211 7.56582 20.9982 7.56582C20.9471 7.56582 20.9034 7.56582 20.8523 7.56582C20.9471 7.83377 20.9982 8.11749 20.9982 8.40646C20.9982 10.2611 18.9055 11.769 16.3315 11.769C15.9305 11.769 15.5367 11.7323 15.1648 11.664C15.1648 11.7007 15.1648 11.7323 15.1648 11.769C15.1648 14.0913 17.7753 15.9723 20.9982 15.9723ZM20.9982 5.04388C23.4735 5.04388 25.8475 5.75242 27.5978 7.01363C29.3482 8.27485 30.3315 9.98542 30.3315 11.769C30.3315 13.5527 29.3482 15.2632 27.5978 16.5245C25.8475 17.7857 23.4735 18.4942 20.9982 18.4942C18.5228 18.4942 16.1489 17.7857 14.3985 16.5245C12.6482 15.2632 11.6648 13.5527 11.6648 11.769C11.6648 9.98542 12.6482 8.27485 14.3985 7.01363C16.1489 5.75242 18.5228 5.04388 20.9982 5.04388Z" fill="white"/>
</svg>
