<svg width="38" height="45" viewBox="0 0 38 45" fill="none" xmlns="http://www.w3.org/2000/svg">
<path d="M6.33333 0C2.8401 0 0 2.52246 0 5.625V39.375C0 42.4775 2.8401 45 6.33333 45H31.6667C35.1599 45 38 42.4775 38 39.375V14.0625H25.3333C23.5818 14.0625 22.1667 12.8057 22.1667 11.25V0H6.33333ZM25.3333 0V11.25H38L25.3333 0ZM6.33333 22.5C6.33333 21.7541 6.66696 21.0387 7.26083 20.5113C7.85469 19.9838 8.66015 19.6875 9.5 19.6875C10.3399 19.6875 11.1453 19.9838 11.7392 20.5113C12.333 21.0387 12.6667 21.7541 12.6667 22.5C12.6667 23.2459 12.333 23.9613 11.7392 24.4887C11.1453 25.0162 10.3399 25.3125 9.5 25.3125C8.66015 25.3125 7.85469 25.0162 7.26083 24.4887C6.66696 23.9613 6.33333 23.2459 6.33333 22.5ZM21.375 25.3125C21.8995 25.3125 22.3844 25.541 22.6812 25.9189L31.3896 37.1689C31.726 37.5996 31.7557 38.1621 31.4885 38.6191C31.2214 39.0762 30.6771 39.375 30.0833 39.375H21.375H17.4167H12.6667H7.91667C7.34271 39.375 6.81823 39.1025 6.54115 38.6631C6.26406 38.2236 6.26406 37.6787 6.56094 37.248L11.3109 30.2168C11.5979 29.7949 12.1125 29.5312 12.6667 29.5312C13.2208 29.5312 13.7354 29.7861 14.0224 30.2168L15.2891 32.0977L20.0688 25.9277C20.3656 25.5498 20.8505 25.3213 21.375 25.3213V25.3125Z" fill="#297BBF"/>
</svg>
