<svg width="38" height="48" viewBox="0 0 38 48" fill="none" xmlns="http://www.w3.org/2000/svg">
<path d="M6.33333 43.1633C5.4625 43.1633 4.75 42.5012 4.75 41.6921V6.38459C4.75 5.57546 5.4625 4.91344 6.33333 4.91344H22.1667V12.2692C22.1667 13.8966 23.5818 15.2115 25.3333 15.2115H33.25V41.6921C33.25 42.5012 32.5375 43.1633 31.6667 43.1633H6.33333ZM6.33333 0.5C2.8401 0.5 0 3.13887 0 6.38459V41.6921C0 44.9378 2.8401 47.5767 6.33333 47.5767H31.6667C35.1599 47.5767 38 44.9378 38 41.6921V14.7058C38 13.1427 37.337 11.6439 36.1495 10.5406L27.1839 2.2194C25.9964 1.11604 24.3932 0.5 22.7109 0.5H6.33333ZM11.875 24.0384C10.5589 24.0384 9.5 25.0222 9.5 26.2451C9.5 27.468 10.5589 28.4518 11.875 28.4518H26.125C27.4411 28.4518 28.5 27.468 28.5 26.2451C28.5 25.0222 27.4411 24.0384 26.125 24.0384H11.875ZM11.875 32.8652C10.5589 32.8652 9.5 33.8491 9.5 35.072C9.5 36.2948 10.5589 37.2787 11.875 37.2787H26.125C27.4411 37.2787 28.5 36.2948 28.5 35.072C28.5 33.8491 27.4411 32.8652 26.125 32.8652H11.875Z" fill="#297BBF"/>
</svg>
