<svg width="65" height="64" viewBox="0 0 65 64" fill="none" xmlns="http://www.w3.org/2000/svg">
<path d="M32.4155 50.6694C42.7809 50.6694 51.1836 42.3108 51.1836 32C51.1836 21.6891 42.7809 13.3306 32.4155 13.3306C22.0503 13.3306 13.6475 21.6891 13.6475 32C13.6475 42.3108 22.0503 50.6694 32.4155 50.6694Z" fill="url(#paint0_linear_744_1321)"/>
<path d="M25.1659 17.2626C25.1659 20.5783 26.4614 23.7767 28.8483 26.4469L26.5131 25.4322C25.1291 24.8306 23.8754 24.0187 22.789 23.0455C22.086 21.1969 21.7246 19.2481 21.7246 17.2626V8.36926H25.1659V17.2626Z" fill="#FFC400"/>
<path d="M43.1028 46.7349V55.6307H39.6613V46.7349C39.6613 43.4216 38.3684 40.2232 35.9814 37.553L38.3168 38.5678C39.7031 39.1717 40.9543 39.9812 42.0409 40.9544C42.7414 42.803 43.1028 44.7494 43.1028 46.7349Z" fill="#FFC400"/>
<path d="M52.0711 55.6308H48.6297V51.2587C48.6297 44.9769 44.8908 39.2917 39.1043 36.7756L24.348 30.3593C17.3079 27.3003 12.7578 20.3828 12.7578 12.7413V8.36926H16.1992V12.7413C16.1992 19.0232 19.9381 24.7084 25.7246 27.2244L40.4809 33.6408C47.521 36.7023 52.0711 43.6198 52.0711 51.2612V55.6333V55.6308Z" fill="#FFC400"/>
<path d="M31.0902 35.4259L30.6944 35.7682L30.3944 36.0299C27.0243 38.9617 25.1659 42.7641 25.1659 46.7352V55.6309H21.7246V46.7352C21.7246 43.3681 22.7693 40.1184 24.7236 37.255C25.5322 36.069 26.5008 34.9467 27.6143 33.9148L29.9593 34.9345L30.6944 35.2548L31.0902 35.4259Z" fill="#FFC400"/>
<path d="M43.1033 8.36926V17.2626C43.1033 20.6322 42.061 23.8819 40.1044 26.7452C39.2956 27.9311 38.3272 29.0536 37.2136 30.083L34.871 29.0658L34.136 28.7454L33.7402 28.5743L34.136 28.2319L34.4359 27.9703C37.806 25.0384 39.6619 21.2361 39.6619 17.2626V8.36926H43.1033Z" fill="#FFC400"/>
<path d="M27.615 33.9146L29.96 34.9342L25.7271 36.7755C25.3854 36.9247 25.051 37.0836 24.7241 37.2547C19.5104 39.9641 16.1992 45.3484 16.1992 51.261V55.6307H12.7578V51.261C12.7578 43.6173 17.3079 36.6997 24.348 33.6382L25.6632 33.066L27.615 33.9146Z" fill="#FFC400"/>
<path d="M52.0709 8.36926V12.7389C52.0709 20.3828 47.5232 27.2978 40.4831 30.3593L39.1655 30.9314L37.2137 30.083L34.8711 29.0658L39.1041 27.2244C39.4457 27.0753 39.7776 26.9164 40.1045 26.7452C45.3183 24.0359 48.6294 18.6515 48.6294 12.7389V8.36926H52.0709Z" fill="#FFC400"/>
<path d="M31.0901 35.4257L34.1358 36.751V55.6307H30.6943V35.2545L31.0901 35.4257Z" fill="#FFC400"/>
<path d="M34.1358 8.36926V28.7454L33.74 28.5743L30.6943 27.249V8.36926H34.1358Z" fill="#FFC400"/>
<defs>
<linearGradient id="paint0_linear_744_1321" x1="13.6475" y1="32" x2="51.1836" y2="32" gradientUnits="userSpaceOnUse">
<stop stop-color="#3D75F3"/>
<stop offset="1" stop-color="#0A52F1"/>
</linearGradient>
</defs>
</svg>
