<svg width="20" height="16" viewBox="0 0 20 16" fill="none" xmlns="http://www.w3.org/2000/svg">
<path d="M16.9231 9.07143V14.4286C16.9231 14.622 16.8469 14.7894 16.6947 14.9308C16.5425 15.0722 16.3622 15.1429 16.1538 15.1429H11.5385V10.8571H8.46153V15.1429H3.84615C3.63781 15.1429 3.45752 15.0722 3.30528 14.9308C3.15304 14.7894 3.07692 14.622 3.07692 14.4286V9.07143C3.07692 9.06399 3.07892 9.05283 3.08293 9.03795C3.08693 9.02306 3.08894 9.0119 3.08894 9.00446L9.99999 3.71428L16.9111 9.00446C16.9191 9.01934 16.9231 9.04167 16.9231 9.07143ZM19.6034 8.30134L18.8582 9.12723C18.7941 9.1942 18.7099 9.23512 18.6058 9.25H18.5697C18.4655 9.25 18.3814 9.22396 18.3173 9.17187L9.99999 2.73214L1.68269 9.17187C1.58653 9.2314 1.49038 9.25744 1.39422 9.25C1.29006 9.23512 1.20592 9.1942 1.14182 9.12723L0.396627 8.30134C0.332525 8.22693 0.30448 8.13951 0.312493 8.03906C0.320506 7.93862 0.364576 7.85863 0.444704 7.79911L9.08653 1.11384C9.34294 0.920386 9.64743 0.82366 9.99999 0.82366C10.3526 0.82366 10.657 0.920386 10.9135 1.11384L13.8461 3.39062V1.21428C13.8461 1.11012 13.8822 1.02455 13.9543 0.957588C14.0264 0.890624 14.1186 0.857141 14.2308 0.857141H16.5385C16.6506 0.857141 16.7428 0.890624 16.8149 0.957588C16.887 1.02455 16.9231 1.11012 16.9231 1.21428V5.76786L19.5553 7.79911C19.6354 7.85863 19.6795 7.93862 19.6875 8.03906C19.6955 8.13951 19.6675 8.22693 19.6034 8.30134Z" fill="white"/>
</svg>
