<svg width="65" height="64" viewBox="0 0 65 64" fill="none" xmlns="http://www.w3.org/2000/svg">
<path d="M43.7648 26.9476C43.7648 20.6828 38.6863 15.6042 32.4215 15.6042C26.1567 15.6042 21.0781 20.6828 21.0781 26.9476C21.0781 30.6912 22.8926 34.0094 25.6861 36.0759C25.6907 36.0804 25.6952 36.0849 25.7019 36.0872C27.7302 37.5797 28.7454 39.0519 28.7454 40.9203C28.7454 42.4331 29.7292 44.4411 32.4215 44.4411C34.8707 44.4411 36.0975 42.4331 36.0975 40.9203C36.0975 39.0541 37.1105 37.5797 39.1411 36.0872C39.1455 36.0827 39.1501 36.0781 39.1568 36.0736C41.9527 34.0071 43.7648 30.689 43.7648 26.9454V26.9476Z" fill="#EFCA66"/>
<path d="M33.7781 43.3088V34.3898C33.7781 34.3898 37.067 33.8743 37.3101 31.0627C37.4587 29.3473 36.6955 27.2087 35.4169 27.2133C34.1698 27.2201 33.4179 28.8926 33.3954 29.7525C33.3481 31.4656 34.6876 31.4161 34.6043 29.6265C34.5367 28.1812 33.5395 27.2087 32.4251 27.2087C31.3086 27.2087 30.3136 28.1835 30.2461 29.6265C30.1605 31.4161 31.5 31.4656 31.455 29.7525C31.4324 28.8926 30.6806 27.2201 29.4335 27.2133C28.1864 27.2066 27.3917 29.3451 27.5403 31.0627C27.7834 33.8743 31.0723 34.3898 31.0723 34.3898V43.3088" stroke="#231F20" stroke-width="1.0684" stroke-miterlimit="10"/>
<path d="M36.0655 49.2227C36.0655 49.7269 35.7165 50.1412 35.2888 50.1412H29.5529C29.1275 50.1412 28.7764 49.7269 28.7764 49.2227V47.2507C28.7764 46.7442 29.1252 46.3323 29.5529 46.3323H35.2888C35.7143 46.3323 36.0655 46.7442 36.0655 47.2507V49.2227Z" fill="#0A52F1"/>
<path d="M37.4149 47.6578C37.4149 47.9753 37.2078 48.2364 36.9534 48.2364H27.8882C27.6338 48.2364 27.4268 47.9774 27.4268 47.6578V41.5911C27.4268 41.2737 27.6338 41.0126 27.8882 41.0126H36.9534C37.2078 41.0126 37.4149 41.2714 37.4149 41.5911V47.6578Z" fill="#F78E28"/>
<path d="M21.5869 46.7509C21.5869 46.7509 28.6914 48.7971 32.7749 46.26C37.2389 43.4845 41.6466 35.3557 43.2516 32.1704C43.6343 31.4117 44.4875 31.0155 45.3137 31.2182C46.3582 31.4747 46.9547 32.5733 46.599 33.5864L44.7576 38.8652L47.8417 38.0841C49.8452 37.5775 51.8419 38.9372 52.1053 40.988L53.2241 49.7155C53.4334 51.3408 52.47 52.8896 50.9189 53.4163C44.6518 55.5414 28.9008 59.312 21.5869 46.7509Z" fill="url(#paint0_linear_744_1375)"/>
<path d="M20.3799 9.71973L21.3491 15.6264" stroke="#231F20" stroke-width="1.78067" stroke-miterlimit="10"/>
<path d="M12.1553 14.1013L17.4134 17.9241" stroke="#231F20" stroke-width="1.78067" stroke-miterlimit="10"/>
<path d="M9.04785 22.052L15.8783 22.6946" stroke="#231F20" stroke-width="1.78067" stroke-miterlimit="10"/>
<path d="M10.3516 29.9939L16.1517 27.7213" stroke="#231F20" stroke-width="1.78067" stroke-miterlimit="10"/>
<defs>
<linearGradient id="paint0_linear_744_1375" x1="23.8921" y1="50.141" x2="55.5562" y2="50.141" gradientUnits="userSpaceOnUse">
<stop stop-color="#3D75F3"/>
<stop offset="1" stop-color="#0A52F1"/>
</linearGradient>
</defs>
</svg>
