<svg width="64" height="64" viewBox="0 0 64 64" fill="none" xmlns="http://www.w3.org/2000/svg">
<path d="M53.7233 31.7144C48.2053 33.9725 41.8589 33.9225 37.1992 31.7144C37.1992 27.1503 40.8982 23.4512 45.4624 23.4512C50.0265 23.4512 53.7256 27.1503 53.7256 31.7144H53.7233Z" fill="url(#paint0_linear_744_1355)"/>
<path d="M50.4429 32.3018L48.9883 28.9921" stroke="#231F20" stroke-width="1.08038" stroke-miterlimit="10" stroke-linecap="round"/>
<path d="M41.5181 28.9921L40.0635 32.3018" stroke="#231F20" stroke-width="1.08038" stroke-miterlimit="10" stroke-linecap="round"/>
<path d="M45.4628 24.6895C47.6391 24.6895 49.4032 22.9253 49.4032 20.749C49.4032 18.5729 47.6391 16.8087 45.4628 16.8087C43.2866 16.8087 41.5225 18.5729 41.5225 20.749C41.5225 22.9253 43.2866 24.6895 45.4628 24.6895Z" fill="#F78E28"/>
<path d="M26.1012 31.7144C20.5833 33.9725 14.2369 33.9225 9.57715 31.7144C9.57715 27.1503 13.2762 23.4512 17.8404 23.4512C22.4045 23.4512 26.1036 27.1503 26.1036 31.7144H26.1012Z" fill="url(#paint1_linear_744_1355)"/>
<path d="M22.8211 32.3018L21.3643 28.9921" stroke="#231F20" stroke-width="1.08038" stroke-miterlimit="10" stroke-linecap="round"/>
<path d="M13.8979 28.9921L12.4434 32.3018" stroke="#231F20" stroke-width="1.08038" stroke-miterlimit="10" stroke-linecap="round"/>
<path d="M17.8389 24.6895C20.0151 24.6895 21.7792 22.9253 21.7792 20.749C21.7792 18.5729 20.0151 16.8087 17.8389 16.8087C15.6627 16.8087 13.8984 18.5729 13.8984 20.749C13.8984 22.9253 15.6627 24.6895 17.8389 24.6895Z" fill="#F78E28"/>
<path d="M45.8195 36.5562C36.3568 40.4283 25.4735 40.3441 17.4834 36.5562C17.4834 28.7324 23.8277 22.3882 31.6515 22.3882C39.4754 22.3882 45.8195 28.7324 45.8195 36.5562Z" fill="url(#paint2_linear_744_1355)"/>
<path d="M40.1925 37.5621L37.6953 31.8872" stroke="#231F20" stroke-width="1.08038" stroke-miterlimit="10" stroke-linecap="round"/>
<path d="M24.8927 31.8872L22.3955 37.5621" stroke="#231F20" stroke-width="1.08038" stroke-miterlimit="10" stroke-linecap="round"/>
<path d="M31.6501 24.5119C35.3827 24.5119 38.4086 21.486 38.4086 17.7534C38.4086 14.0207 35.3827 10.9949 31.6501 10.9949C27.9174 10.9949 24.8916 14.0207 24.8916 17.7534C24.8916 21.486 27.9174 24.5119 31.6501 24.5119Z" fill="#F78E28"/>
<path d="M40.8748 52.3859C40.8748 52.3859 17.2006 57.2482 6.5472 39.7202C5.71178 38.3452 5.88706 36.5856 6.96605 35.3928C6.98654 35.37 7.0093 35.345 7.02979 35.3223C8.51398 33.6856 11.1022 33.7425 12.5158 35.4406C15.7346 39.3105 22.138 44.7805 31.4506 42.5042C36.5906 45.9734 40.8725 52.3836 40.8725 52.3836L40.8748 52.3859Z" fill="#FFC400"/>
<path d="M38.5021 33.5216C37.6848 36.679 36.6195 40.5693 31.4521 42.5042C28.6818 49.331 36.9473 52.9345 41.6958 52.2857C43.9266 51.9807 52.3514 49.6315 55.083 48.8598C55.5452 48.73 55.7887 48.2292 55.6111 47.7831L55.5679 47.6738C55.4131 47.2891 54.9943 47.0842 54.5959 47.198L48.905 48.8348C48.6455 48.9099 48.3746 48.7687 48.2858 48.5138C48.1993 48.2634 48.32 47.988 48.5636 47.8832L56.4216 44.4914C56.8609 44.3025 57.0384 43.7767 56.8063 43.3578L56.7721 43.2964C56.5764 42.9435 56.1483 42.7887 55.7728 42.9367L48.0104 45.9779C47.7373 46.0849 47.4322 45.9392 47.3412 45.6592L47.3275 45.616C47.2546 45.3838 47.3547 45.1334 47.5688 45.0173L56.8563 39.9592C57.2251 39.7589 57.3799 39.306 57.2069 38.9234C57.0202 38.5001 56.5149 38.3225 56.1029 38.532L47.1385 43.0847C46.8198 43.2463 46.4328 43.1052 46.2918 42.7773C46.1642 42.4792 46.2895 42.1332 46.5763 41.9852L52.8636 38.7528C53.2802 38.5387 53.4395 38.0243 53.2165 37.6123C53.0161 37.239 52.57 37.0751 52.1761 37.2299C50.3619 37.9424 45.4654 39.8727 43.617 40.6649C42.8408 40.9972 40.7352 41.0906 40.3481 39.8113C39.7972 37.9947 40.6623 36.4195 40.9172 33.9519C40.9787 33.3646 40.5962 32.8183 40.0271 32.6634L39.9953 32.6544C39.342 32.4769 38.6682 32.8661 38.4997 33.5216H38.5021Z" fill="#FFC400"/>
<defs>
<linearGradient id="paint0_linear_744_1355" x1="37.1992" y1="28.4204" x2="53.7233" y2="28.4204" gradientUnits="userSpaceOnUse">
<stop stop-color="#0A52F1"/>
<stop offset="1" stop-color="#3D75F3"/>
</linearGradient>
<linearGradient id="paint1_linear_744_1355" x1="9.57715" y1="10.9949" x2="26.1012" y2="10.9949" gradientUnits="userSpaceOnUse">
<stop stop-color="#0A52F1"/>
<stop offset="1" stop-color="#3D75F3"/>
</linearGradient>
<linearGradient id="paint2_linear_744_1355" x1="17.4834" y1="30.9086" x2="45.8195" y2="30.9086" gradientUnits="userSpaceOnUse">
<stop stop-color="#0A52F1"/>
<stop offset="1" stop-color="#3D75F3"/>
</linearGradient>
</defs>
</svg>
