<svg width="23" height="24" viewBox="0 0 23 24" fill="none" xmlns="http://www.w3.org/2000/svg">
<path d="M22.6872 20.3864L18.2082 15.9074C18.006 15.7052 17.732 15.5929 17.4444 15.5929H16.7122C17.9521 14.007 18.6889 12.0124 18.6889 9.84247C18.6889 4.68056 14.5063 0.498032 9.34443 0.498032C4.18253 0.498032 0 4.68056 0 9.84247C0 15.0044 4.18253 19.1869 9.34443 19.1869C11.5143 19.1869 13.509 18.4501 15.0949 17.2102V17.9425C15.0949 18.23 15.2072 18.504 15.4093 18.7062L19.8884 23.1852C20.3107 23.6075 20.9935 23.6075 21.4113 23.1852L22.6827 21.9139C23.105 21.4916 23.105 20.8087 22.6872 20.3864ZM9.34443 15.5929C6.16822 15.5929 3.59401 13.0232 3.59401 9.84247C3.59401 6.66626 6.16373 4.09204 9.34443 4.09204C12.5206 4.09204 15.0949 6.66176 15.0949 9.84247C15.0949 13.0187 12.5251 15.5929 9.34443 15.5929Z" fill="#005689"/>
</svg>
