<svg width="153" height="47" viewBox="0 0 153 47" fill="none" xmlns="http://www.w3.org/2000/svg">
<g filter="url(#filter0_d_741_2362)">
<rect x="2.83984" y="1.8999" width="148" height="42" rx="6" fill="white" shape-rendering="crispEdges"/>
<rect x="3.33984" y="2.3999" width="147" height="41" rx="5.5" stroke="#E1E2E3" shape-rendering="crispEdges"/>
<g clip-path="url(#clip0_741_2362)">
<path d="M35.6732 28.7333H24.0065V17.0666H29.8398V15.3999H24.0065C23.0815 15.3999 22.3398 16.1499 22.3398 17.0666V28.7333C22.3398 29.6499 23.0815 30.3999 24.0065 30.3999H35.6732C36.5898 30.3999 37.3398 29.6499 37.3398 28.7333V22.8999H35.6732V28.7333ZM31.5065 15.3999V17.0666H34.4982L26.3065 25.2582L27.4815 26.4333L35.6732 18.2416V21.2332H37.3398V15.3999H31.5065Z" fill="#444853"/>
</g>
<path d="M45.1183 28.8999V17.2635H46.8739V27.3885H52.1467V28.8999H45.1183ZM54.0131 28.8999V20.1726H55.712V28.8999H54.0131ZM54.8711 18.826C54.5756 18.826 54.3219 18.7276 54.1097 18.5306C53.9014 18.3298 53.7972 18.0912 53.7972 17.8147C53.7972 17.5344 53.9014 17.2957 54.1097 17.0988C54.3219 16.898 54.5756 16.7976 54.8711 16.7976C55.1665 16.7976 55.4184 16.898 55.6268 17.0988C55.8389 17.2957 55.945 17.5344 55.945 17.8147C55.945 18.0912 55.8389 18.3298 55.6268 18.5306C55.4184 18.7276 55.1665 18.826 54.8711 18.826ZM59.6964 23.7181V28.8999H57.9975V17.2635H59.6737V21.5931H59.7816C59.9862 21.1234 60.2987 20.7503 60.7191 20.4738C61.1396 20.1973 61.6888 20.059 62.3668 20.059C62.9653 20.059 63.488 20.1821 63.935 20.4283C64.3858 20.6745 64.7343 21.0419 64.9805 21.5306C65.2305 22.0154 65.3555 22.6215 65.3555 23.3488V28.8999H63.6566V23.5533C63.6566 22.9132 63.4918 22.4169 63.1623 22.0647C62.8327 21.7086 62.3744 21.5306 61.7873 21.5306C61.3858 21.5306 61.0259 21.6158 60.7077 21.7863C60.3933 21.9567 60.1452 22.2067 59.9634 22.5363C59.7854 22.862 59.6964 23.256 59.6964 23.7181ZM70.1623 29.0931C69.6093 29.0931 69.1093 28.9908 68.6623 28.7863C68.2153 28.5779 67.8612 28.2768 67.5998 27.8829C67.3422 27.4889 67.2134 27.006 67.2134 26.434C67.2134 25.9416 67.3081 25.5363 67.4975 25.2181C67.6869 24.8999 67.9426 24.648 68.2646 24.4624C68.5865 24.2768 68.9464 24.1366 69.3441 24.0419C69.7418 23.9473 70.1471 23.8753 70.56 23.826C71.0827 23.7654 71.507 23.7162 71.8327 23.6783C72.1585 23.6366 72.3952 23.5704 72.543 23.4794C72.6907 23.3885 72.7646 23.2408 72.7646 23.0363V22.9965C72.7646 22.5003 72.6244 22.1158 72.3441 21.8431C72.0676 21.5704 71.6547 21.434 71.1055 21.434C70.5335 21.434 70.0827 21.5609 69.7532 21.8147C69.4274 22.0647 69.2021 22.3431 69.0771 22.6499L67.4805 22.2863C67.6699 21.756 67.9464 21.3279 68.31 21.0022C68.6774 20.6726 69.0998 20.434 69.5771 20.2863C70.0543 20.1348 70.5562 20.059 71.0827 20.059C71.4312 20.059 71.8005 20.1007 72.1907 20.184C72.5846 20.2635 72.9521 20.4113 73.293 20.6272C73.6377 20.8431 73.9199 21.1518 74.1396 21.5533C74.3593 21.951 74.4691 22.4681 74.4691 23.1044V28.8999H72.81V27.7067H72.7418C72.632 27.9264 72.4672 28.1423 72.2475 28.3544C72.0278 28.5666 71.7456 28.7427 71.4009 28.8829C71.0562 29.023 70.6433 29.0931 70.1623 29.0931ZM70.5316 27.7294C71.0013 27.7294 71.4028 27.6366 71.7362 27.451C72.0733 27.2654 72.329 27.023 72.5032 26.7238C72.6812 26.4207 72.7702 26.0969 72.7702 25.7522V24.6272C72.7096 24.6878 72.5922 24.7446 72.418 24.7976C72.2475 24.8469 72.0524 24.8904 71.8327 24.9283C71.613 24.9624 71.399 24.9946 71.1907 25.0249C70.9824 25.0514 70.8081 25.0741 70.668 25.0931C70.3384 25.1348 70.0373 25.2048 69.7646 25.3033C69.4956 25.4018 69.2797 25.5438 69.1168 25.7294C68.9577 25.9113 68.8782 26.1537 68.8782 26.4567C68.8782 26.8772 69.0335 27.1954 69.3441 27.4113C69.6547 27.6234 70.0505 27.7294 70.5316 27.7294ZM80.8058 20.1726V21.5363H76.0387V20.1726H80.8058ZM77.3171 18.0817H79.016V26.3374C79.016 26.6669 79.0652 26.9151 79.1637 27.0817C79.2622 27.2446 79.3891 27.3563 79.5444 27.4169C79.7035 27.4738 79.8758 27.5022 80.0614 27.5022C80.1978 27.5022 80.3171 27.4927 80.4194 27.4738C80.5217 27.4548 80.6012 27.4397 80.658 27.4283L80.9648 28.8317C80.8664 28.8696 80.7262 28.9075 80.5444 28.9454C80.3626 28.987 80.1353 29.0098 79.8626 29.0135C79.4156 29.0211 78.9989 28.9416 78.6126 28.7749C78.2262 28.6082 77.9137 28.3507 77.6751 28.0022C77.4364 27.6537 77.3171 27.2162 77.3171 26.6897V18.0817ZM91.5785 17.2635H93.3285V25.5135C93.3285 26.2598 93.1808 26.898 92.8853 27.4283C92.5936 27.9586 92.1826 28.3639 91.6523 28.6442C91.122 28.9207 90.5008 29.059 89.7887 29.059C89.1334 29.059 88.5444 28.9397 88.0217 28.701C87.5027 28.4624 87.0917 28.1158 86.7887 27.6613C86.4895 27.2029 86.3398 26.6461 86.3398 25.9908H88.0842C88.0842 26.3128 88.158 26.5912 88.3058 26.826C88.4573 27.0609 88.6637 27.2446 88.9251 27.3772C89.1902 27.506 89.4933 27.5704 89.8342 27.5704C90.2054 27.5704 90.5198 27.4927 90.7773 27.3374C91.0387 27.1783 91.2376 26.9454 91.3739 26.6385C91.5103 26.3317 91.5785 25.9567 91.5785 25.5135V17.2635ZM101.276 25.2806V20.1726H102.98V28.8999H101.31V27.3885H101.219C101.018 27.8544 100.696 28.2427 100.253 28.5533C99.8138 28.8601 99.2665 29.0135 98.6112 29.0135C98.0505 29.0135 97.5543 28.8904 97.1225 28.6442C96.6945 28.3942 96.3574 28.0249 96.1112 27.5363C95.8687 27.0476 95.7475 26.4435 95.7475 25.7238V20.1726H97.4464V25.5192C97.4464 26.1139 97.6112 26.5874 97.9407 26.9397C98.2702 27.2919 98.6983 27.4681 99.2248 27.4681C99.543 27.4681 99.8593 27.3885 100.174 27.2294C100.492 27.0704 100.755 26.8298 100.963 26.5079C101.176 26.1859 101.28 25.7768 101.276 25.2806ZM105.263 28.8999V20.1726H106.905V21.559H106.996C107.155 21.0893 107.435 20.72 107.837 20.451C108.242 20.1783 108.701 20.0419 109.212 20.0419C109.318 20.0419 109.443 20.0457 109.587 20.0533C109.735 20.0609 109.85 20.0704 109.934 20.0817V21.7067C109.865 21.6878 109.744 21.6669 109.57 21.6442C109.396 21.6177 109.221 21.6044 109.047 21.6044C108.646 21.6044 108.288 21.6897 107.973 21.8601C107.663 22.0268 107.417 22.2598 107.235 22.559C107.053 22.8544 106.962 23.1916 106.962 23.5704V28.8999H105.263ZM113.103 23.7181V28.8999H111.404V20.1726H113.034V21.5931H113.142C113.343 21.131 113.658 20.7598 114.086 20.4794C114.517 20.1991 115.061 20.059 115.716 20.059C116.311 20.059 116.832 20.184 117.279 20.434C117.726 20.6802 118.072 21.0476 118.319 21.5363C118.565 22.0249 118.688 22.6291 118.688 23.3488V28.8999H116.989V23.5533C116.989 22.9207 116.824 22.4264 116.495 22.0704C116.165 21.7105 115.712 21.5306 115.137 21.5306C114.743 21.5306 114.392 21.6158 114.086 21.7863C113.783 21.9567 113.542 22.2067 113.364 22.5363C113.19 22.862 113.103 23.256 113.103 23.7181ZM123.506 29.0931C122.953 29.0931 122.453 28.9908 122.006 28.7863C121.559 28.5779 121.205 28.2768 120.944 27.8829C120.686 27.4889 120.557 27.006 120.557 26.434C120.557 25.9416 120.652 25.5363 120.841 25.2181C121.031 24.8999 121.286 24.648 121.608 24.4624C121.93 24.2768 122.29 24.1366 122.688 24.0419C123.086 23.9473 123.491 23.8753 123.904 23.826C124.426 23.7654 124.851 23.7162 125.176 23.6783C125.502 23.6366 125.739 23.5704 125.887 23.4794C126.034 23.3885 126.108 23.2408 126.108 23.0363V22.9965C126.108 22.5003 125.968 22.1158 125.688 21.8431C125.411 21.5704 124.998 21.434 124.449 21.434C123.877 21.434 123.426 21.5609 123.097 21.8147C122.771 22.0647 122.546 22.3431 122.421 22.6499L120.824 22.2863C121.014 21.756 121.29 21.3279 121.654 21.0022C122.021 20.6726 122.444 20.434 122.921 20.2863C123.398 20.1348 123.9 20.059 124.426 20.059C124.775 20.059 125.144 20.1007 125.534 20.184C125.928 20.2635 126.296 20.4113 126.637 20.6272C126.981 20.8431 127.264 21.1518 127.483 21.5533C127.703 21.951 127.813 22.4681 127.813 23.1044V28.8999H126.154V27.7067H126.086C125.976 27.9264 125.811 28.1423 125.591 28.3544C125.372 28.5666 125.089 28.7427 124.745 28.8829C124.4 29.023 123.987 29.0931 123.506 29.0931ZM123.875 27.7294C124.345 27.7294 124.747 27.6366 125.08 27.451C125.417 27.2654 125.673 27.023 125.847 26.7238C126.025 26.4207 126.114 26.0969 126.114 25.7522V24.6272C126.053 24.6878 125.936 24.7446 125.762 24.7976C125.591 24.8469 125.396 24.8904 125.176 24.9283C124.957 24.9624 124.743 24.9946 124.534 25.0249C124.326 25.0514 124.152 25.0741 124.012 25.0931C123.682 25.1348 123.381 25.2048 123.108 25.3033C122.839 25.4018 122.623 25.5438 122.461 25.7294C122.301 25.9113 122.222 26.1537 122.222 26.4567C122.222 26.8772 122.377 27.1954 122.688 27.4113C122.998 27.6234 123.394 27.7294 123.875 27.7294ZM131.775 17.2635V28.8999H130.076V17.2635H131.775Z" fill="#0F1523"/>
</g>
<defs>
<filter id="filter0_d_741_2362" x="0.839844" y="0.899902" width="152" height="46" filterUnits="userSpaceOnUse" color-interpolation-filters="sRGB">
<feFlood flood-opacity="0" result="BackgroundImageFix"/>
<feColorMatrix in="SourceAlpha" type="matrix" values="0 0 0 0 0 0 0 0 0 0 0 0 0 0 0 0 0 0 127 0" result="hardAlpha"/>
<feOffset dy="1"/>
<feGaussianBlur stdDeviation="1"/>
<feComposite in2="hardAlpha" operator="out"/>
<feColorMatrix type="matrix" values="0 0 0 0 0 0 0 0 0 0 0 0 0 0 0 0 0 0 0.12 0"/>
<feBlend mode="normal" in2="BackgroundImageFix" result="effect1_dropShadow_741_2362"/>
<feBlend mode="normal" in="SourceGraphic" in2="effect1_dropShadow_741_2362" result="shape"/>
</filter>
<clipPath id="clip0_741_2362">
<rect width="20" height="20" fill="white" transform="translate(19.8398 12.8999)"/>
</clipPath>
</defs>
</svg>
