<svg width="40" height="39" viewBox="0 0 40 39" fill="none" xmlns="http://www.w3.org/2000/svg">
<g clip-path="url(#clip0_434_167)">
<path d="M37.5 2.43686C37.5 1.45424 36.8906 0.56303 35.9531 0.18217C35.0156 -0.198689 33.9453 0.014592 33.2266 0.707756L29.8203 4.03647C26.0703 7.69272 20.9844 9.74936 15.6797 9.74936H15H12.5H5C2.24219 9.74936 0 11.9355 0 14.6244V21.9369C0 24.6257 2.24219 26.8119 5 26.8119V36.5619C5 37.9101 6.11719 38.9994 7.5 38.9994H12.5C13.8828 38.9994 15 37.9101 15 36.5619V26.8119H15.6797C20.9844 26.8119 26.0703 28.8685 29.8203 32.5247L33.2266 35.8458C33.9453 36.5466 35.0156 36.7523 35.9531 36.3714C36.8906 35.9906 37.5 35.107 37.5 34.1167V22.8814C38.9531 22.2111 40 20.4058 40 18.2806C40 16.1554 38.9531 14.3501 37.5 13.6798V2.43686ZM32.5 8.27924V18.2806V28.282C27.9062 24.2068 21.9141 21.9369 15.6797 21.9369H15V14.6244H15.6797C21.9141 14.6244 27.9062 12.3544 32.5 8.27924Z" fill="#297BBF"/>
</g>
<defs>
<clipPath id="clip0_434_167">
<rect width="40" height="39" fill="white"/>
</clipPath>
</defs>
</svg>
