<svg width="22" height="23" viewBox="0 0 22 23" fill="none" xmlns="http://www.w3.org/2000/svg">
<path d="M0 10.1249C0 10.8855 0.614453 11.5 1.375 11.5C2.13555 11.5 2.75 10.8855 2.75 10.1249C2.75 7.84734 4.59766 5.99952 6.875 5.99952H13.75V7.37464C13.75 7.92899 14.0852 8.43177 14.6008 8.64663C15.1164 8.86149 15.7051 8.74117 16.1004 8.35012L18.8504 5.59988C19.3875 5.06272 19.3875 4.19038 18.8504 3.65322L16.1004 0.902986C15.7051 0.50764 15.1164 0.391614 14.6008 0.606476C14.0852 0.821339 13.75 1.31982 13.75 1.87416V3.24928H6.875C3.07656 3.24928 0 6.32611 0 10.1249ZM22 12.8751C22 12.1145 21.3855 11.5 20.625 11.5C19.8645 11.5 19.25 12.1145 19.25 12.8751C19.25 15.1527 17.4023 17.0005 15.125 17.0005H8.25V15.6254C8.25 15.071 7.91484 14.5682 7.39922 14.3534C6.88359 14.1385 6.29492 14.2588 5.89961 14.6499L3.14961 17.4001C2.6125 17.9373 2.6125 18.8096 3.14961 19.3468L5.89961 22.097C6.29492 22.4924 6.88359 22.6084 7.39922 22.3935C7.91484 22.1787 8.25 21.6802 8.25 21.1215V19.7507H15.125C18.9234 19.7507 22 16.6739 22 12.8751Z" fill="black"/>
</svg>
