<svg width="64" height="64" viewBox="0 0 64 64" fill="none" xmlns="http://www.w3.org/2000/svg">
<g filter="url(#filter0_d_335_170)">
<path d="M13.2375 36.7625L28.5875 21.4125C29.4875 20.5125 30.725 20 32 20C33.275 20 34.5125 20.5125 35.4125 21.4125L50.7625 36.7625C51.5625 37.5625 52 38.6375 52 39.7625C52 42.1 50.1 44 47.7625 44H40V60C40 62.2125 38.2125 64 36 64H28C25.7875 64 24 62.2125 24 60V44H16.2375C13.9 44 12 42.1 12 39.7625C12 38.6375 12.45 37.5625 13.2375 36.7625ZM52 20V12C52 9.7875 50.2125 8 48 8H16C13.7875 8 12 9.7875 12 12V20C12 22.2125 10.2125 24 8 24C5.7875 24 4 22.2125 4 20L4 12C4 5.375 9.375 0 16 0H48C54.625 0 60 5.375 60 12V20C60 22.2125 58.2125 24 56 24C53.7875 24 52 22.2125 52 20Z" fill="#005689"/>
</g>
<defs>
<filter id="filter0_d_335_170" x="0" y="0" width="64" height="72" filterUnits="userSpaceOnUse" color-interpolation-filters="sRGB">
<feFlood flood-opacity="0" result="BackgroundImageFix"/>
<feColorMatrix in="SourceAlpha" type="matrix" values="0 0 0 0 0 0 0 0 0 0 0 0 0 0 0 0 0 0 127 0" result="hardAlpha"/>
<feOffset dy="4"/>
<feGaussianBlur stdDeviation="2"/>
<feComposite in2="hardAlpha" operator="out"/>
<feColorMatrix type="matrix" values="0 0 0 0 1 0 0 0 0 1 0 0 0 0 1 0 0 0 1 0"/>
<feBlend mode="normal" in2="BackgroundImageFix" result="effect1_dropShadow_335_170"/>
<feBlend mode="normal" in="SourceGraphic" in2="effect1_dropShadow_335_170" result="shape"/>
</filter>
</defs>
</svg>
