<svg width="64" height="64" viewBox="0 0 64 64" fill="none" xmlns="http://www.w3.org/2000/svg">
<path d="M38.1349 37.8637L35.7803 39.1371" stroke="#231F20" stroke-width="0.55798" stroke-miterlimit="10"/>
<path d="M44.5009 55.6309C41.7429 54.3421 39.9801 51.5812 39.9801 48.5472V30.6862H22.4563V48.5472C22.4563 51.5834 20.6937 54.3444 17.9355 55.6309H30.4454H44.5009Z" fill="url(#paint0_linear_744_1306)"/>
<path d="M45.4348 24.2774C45.494 30.9176 41.5082 36.6383 35.7795 39.1371H35.7773L19.8516 47.7497C16.916 49.3377 13.3446 47.219 13.3446 43.8923V35.7537H8.68359L11.4855 30.9679C12.6409 28.9932 13.2087 26.7435 13.2043 24.4587C13.2043 24.4477 13.2043 24.4368 13.2043 24.4259C13.2043 15.4288 20.63 8.16167 29.7066 8.37354C38.3489 8.57668 45.3558 15.6669 45.4348 24.2774Z" fill="#0A52F1"/>
<path d="M54.4501 33.2244C54.4501 35.5375 52.569 37.4116 50.2494 37.4116C47.9298 37.4116 46.0488 35.5375 46.0488 33.2244H54.4479H54.4501Z" fill="#FFC400"/>
<path d="M54.4498 33.2245L50.2514 26.8572L46.0508 33.2245" stroke="#231F20" stroke-width="1.67393" stroke-miterlimit="10"/>
<path d="M26.249 26.8571C35.7136 26.8571 38.2502 22.3532 38.2502 22.3532C38.2502 22.3532 40.7869 26.8571 50.2514 26.8571" stroke="#231F20" stroke-width="1.67393" stroke-miterlimit="10"/>
<path d="M22.0508 33.2244C22.0508 35.5375 23.9319 37.4116 26.2514 37.4116C28.571 37.4116 30.4521 35.5375 30.4521 33.2244H22.0529H22.0508Z" fill="#FFC400"/>
<path d="M22.0508 33.2245L26.2493 26.8572L30.4498 33.2245" stroke="#231F20" stroke-width="1.67393" stroke-miterlimit="10"/>
<path d="M39.9891 48.5469H39.9804V22.888C39.9804 21.9357 39.2064 21.1647 38.2505 21.1647C37.2946 21.1647 36.5207 21.9357 36.5207 22.888V48.5469H36.512C36.512 51.5809 34.7493 54.3419 31.9912 55.6305H44.5098C41.7518 54.3419 39.9891 51.5809 39.9891 48.5469Z" fill="#BCBCBC"/>
<defs>
<linearGradient id="paint0_linear_744_1306" x1="18.5363" y1="43.1585" x2="32.3769" y2="43.1585" gradientUnits="userSpaceOnUse">
<stop stop-color="#3D75F3"/>
<stop offset="1" stop-color="#0A52F1"/>
</linearGradient>
</defs>
</svg>
