<svg width="114" height="47" viewBox="0 0 114 47" fill="none" xmlns="http://www.w3.org/2000/svg">
<g filter="url(#filter0_d_946_231)">
<rect x="2.83984" y="1.815" width="109" height="42" rx="6" fill="white" shape-rendering="crispEdges"/>
<rect x="3.33984" y="2.315" width="108" height="41" rx="5.5" stroke="#E1E2E3" shape-rendering="crispEdges"/>
<g clip-path="url(#clip0_946_231)">
<path d="M34.8395 25.3154V27.8154H24.8395V25.3154H23.1729V27.8154C23.1729 28.7321 23.9229 29.4821 24.8395 29.4821H34.8395C35.7562 29.4821 36.5062 28.7321 36.5062 27.8154V25.3154H34.8395ZM34.0062 21.9821L32.8312 20.8071L30.6729 22.9571V16.1487H29.0062V22.9571L26.8479 20.8071L25.6729 21.9821L29.8395 26.1488L34.0062 21.9821Z" fill="#444853"/>
</g>
<path d="M52.6012 17.1786H54.3626V24.832C54.3626 25.6464 54.1713 26.368 53.7887 26.9968C53.4061 27.6218 52.8683 28.1142 52.1751 28.4741C51.4819 28.8302 50.6694 29.0082 49.7376 29.0082C48.8095 29.0082 47.9989 28.8302 47.3058 28.4741C46.6126 28.1142 46.0747 27.6218 45.6921 26.9968C45.3095 26.368 45.1183 25.6464 45.1183 24.832V17.1786H46.8739V24.69C46.8739 25.2165 46.9895 25.6843 47.2205 26.0934C47.4554 26.5025 47.7868 26.8245 48.2148 27.0593C48.6429 27.2904 49.1504 27.4059 49.7376 27.4059C50.3285 27.4059 50.8379 27.2904 51.266 27.0593C51.6978 26.8245 52.0273 26.5025 52.2546 26.0934C52.4857 25.6843 52.6012 25.2165 52.6012 24.69V17.1786ZM58.4776 23.6332V28.815H56.7788V20.0877H58.4094V21.5082H58.5174C58.7182 21.0461 59.0326 20.6749 59.4606 20.3945C59.8924 20.1142 60.436 19.9741 61.0913 19.9741C61.686 19.9741 62.2068 20.0991 62.6538 20.3491C63.1007 20.5953 63.4473 20.9627 63.6935 21.4514C63.9397 21.94 64.0629 22.5442 64.0629 23.2639V28.815H62.364V23.4684C62.364 22.8358 62.1992 22.3415 61.8697 21.9855C61.5401 21.6256 61.0875 21.4457 60.5117 21.4457C60.1178 21.4457 59.7674 21.5309 59.4606 21.7014C59.1576 21.8718 58.917 22.1218 58.739 22.4514C58.5647 22.7771 58.4776 23.1711 58.4776 23.6332ZM69.6083 28.9855C68.9038 28.9855 68.275 28.8055 67.7219 28.4457C67.1727 28.082 66.7409 27.565 66.4265 26.8945C66.1159 26.2203 65.9606 25.4116 65.9606 24.4684C65.9606 23.5252 66.1178 22.7184 66.4322 22.048C66.7504 21.3775 67.186 20.8642 67.739 20.5082C68.292 20.1521 68.9189 19.9741 69.6197 19.9741C70.1613 19.9741 70.5969 20.065 70.9265 20.2468C71.2598 20.4249 71.5174 20.6332 71.6992 20.8718C71.8848 21.1105 72.0288 21.3207 72.131 21.5025H72.2333V17.1786H73.9322V28.815H72.2731V27.457H72.131C72.0288 27.6427 71.881 27.8548 71.6879 28.0934C71.4985 28.332 71.2371 28.5404 70.9038 28.7184C70.5704 28.8964 70.1386 28.9855 69.6083 28.9855ZM69.9833 27.5366C70.4719 27.5366 70.8848 27.4078 71.2219 27.1502C71.5629 26.8889 71.8204 26.5271 71.9947 26.065C72.1727 25.6029 72.2617 25.065 72.2617 24.4514C72.2617 23.8453 72.1746 23.315 72.0004 22.8605C71.8261 22.4059 71.5704 22.0517 71.2333 21.798C70.8962 21.5442 70.4795 21.4173 69.9833 21.4173C69.4719 21.4173 69.0458 21.5499 68.7049 21.815C68.364 22.0802 68.1064 22.4419 67.9322 22.9002C67.7617 23.3586 67.6765 23.8756 67.6765 24.4514C67.6765 25.0347 67.7636 25.5593 67.9379 26.0252C68.1121 26.4911 68.3697 26.8605 68.7106 27.1332C69.0553 27.4021 69.4795 27.5366 69.9833 27.5366ZM81.8853 25.1957V20.0877H83.5898V28.815H81.9194V27.3036H81.8285C81.6277 27.7695 81.3058 28.1578 80.8626 28.4684C80.4232 28.7752 79.8758 28.9286 79.2205 28.9286C78.6599 28.9286 78.1637 28.8055 77.7319 28.5593C77.3039 28.3093 76.9667 27.94 76.7205 27.4514C76.4781 26.9627 76.3569 26.3586 76.3569 25.6389V20.0877H78.0558V25.4343C78.0558 26.029 78.2205 26.5025 78.5501 26.8548C78.8796 27.207 79.3076 27.3832 79.8342 27.3832C80.1523 27.3832 80.4686 27.3036 80.783 27.1445C81.1012 26.9855 81.3645 26.7449 81.5728 26.423C81.7849 26.101 81.8891 25.6919 81.8853 25.1957ZM87.5714 23.6332V28.815H85.8725V17.1786H87.5487V21.5082H87.6566C87.8612 21.0385 88.1737 20.6654 88.5941 20.3889C89.0146 20.1124 89.5638 19.9741 90.2418 19.9741C90.8403 19.9741 91.363 20.0972 91.81 20.3434C92.2608 20.5896 92.6093 20.957 92.8555 21.4457C93.1055 21.9305 93.2305 22.5366 93.2305 23.2639V28.815H91.5316V23.4684C91.5316 22.8283 91.3668 22.332 91.0373 21.9798C90.7077 21.6237 90.2494 21.4457 89.6623 21.4457C89.2608 21.4457 88.9009 21.5309 88.5827 21.7014C88.2683 21.8718 88.0202 22.1218 87.8384 22.4514C87.6604 22.7771 87.5714 23.1711 87.5714 23.6332Z" fill="#0F1523"/>
</g>
<defs>
<filter id="filter0_d_946_231" x="0.839844" y="0.815002" width="113" height="46" filterUnits="userSpaceOnUse" color-interpolation-filters="sRGB">
<feFlood flood-opacity="0" result="BackgroundImageFix"/>
<feColorMatrix in="SourceAlpha" type="matrix" values="0 0 0 0 0 0 0 0 0 0 0 0 0 0 0 0 0 0 127 0" result="hardAlpha"/>
<feOffset dy="1"/>
<feGaussianBlur stdDeviation="1"/>
<feComposite in2="hardAlpha" operator="out"/>
<feColorMatrix type="matrix" values="0 0 0 0 0 0 0 0 0 0 0 0 0 0 0 0 0 0 0.12 0"/>
<feBlend mode="normal" in2="BackgroundImageFix" result="effect1_dropShadow_946_231"/>
<feBlend mode="normal" in="SourceGraphic" in2="effect1_dropShadow_946_231" result="shape"/>
</filter>
<clipPath id="clip0_946_231">
<rect width="20" height="20" fill="white" transform="translate(19.8398 12.815)"/>
</clipPath>
</defs>
</svg>
